<?xml version="1.0" encoding="UTF-8" standalone="no"?><!-- Generator: Gravit.io --><svg xmlns="http://www.w3.org/2000/svg" xmlns:xlink="http://www.w3.org/1999/xlink" style="isolation:isolate" viewBox="0 0 160 160" width="160pt" height="160pt"><defs><clipPath id="_clipPath_381mUaWPVcygA2eyNl3hW3miHnph7k3a"><rect width="160" height="160"/></clipPath></defs><g clip-path="url(#_clipPath_381mUaWPVcygA2eyNl3hW3miHnph7k3a)"><path d=" M 80.002 0 C 35.882 0 0 35.876 0 79.996 C 0 124.117 35.882 160 80.002 160 C 124.122 160 160 124.117 160 79.996 C 160 35.876 124.122 0 80.002 0 L 80.002 0 Z  M 80.002 10.49 C 118.452 10.49 149.51 41.546 149.51 79.996 C 149.51 90.402 147.231 100.265 143.151 109.118 L 74.383 127.546 C 72.764 127.979 70.964 127.738 69.461 126.985 L 59.884 121.456 C 58.345 120.568 57.237 119.129 56.803 117.51 L 48.348 85.95 C 46.902 80.554 41.429 77.395 35.899 78.877 L 24.569 81.913 C 21.602 82.708 19.824 85.786 20.619 88.753 C 21.414 91.721 24.493 93.497 27.46 92.702 L 35.014 90.678 C 36.498 90.281 37.902 91.206 38.299 92.689 L 45.564 119.8 C 45.997 121.419 45.585 123.119 44.66 124.523 L 38.257 132.455 C 37.741 133.129 37.289 133.836 36.902 134.568 C 20.807 121.849 10.496 102.151 10.496 79.996 C 10.496 41.546 41.552 10.49 80.002 10.49 Z  M 97.049 17.814 C 96.719 17.814 96.383 17.855 96.046 17.946 C 92.539 18.885 89.88 21.912 89.228 25.412 L 88.407 30.98 C 88.13 32.644 86.899 33.986 85.28 34.42 L 68.96 38.792 C 67.746 39.117 66.576 37.986 66.826 36.762 L 67.917 31.122 C 68.48 28.369 65.968 26.006 63.271 26.728 C 59.629 27.704 56.934 30.595 56.183 34.265 L 51.623 57.171 C 50.747 61.454 54.771 65.145 58.953 64.025 C 60.301 63.664 61.669 64.455 62.031 65.803 L 72.33 104.243 C 73.776 109.638 79.285 112.932 84.815 111.451 L 136.473 97.608 C 139.171 96.886 140.984 93.942 140.225 91.11 C 139.466 88.277 136.388 86.501 133.691 87.224 L 115.077 92.211 C 113.593 92.608 112.225 91.818 111.827 90.334 L 110.635 85.884 C 110.238 84.4 110.991 82.897 112.475 82.499 L 123.669 79.501 C 126.772 78.669 128.55 75.59 127.755 72.623 C 126.923 69.521 123.844 67.743 120.742 68.575 L 109.547 71.575 C 108.064 71.972 106.659 71.047 106.262 69.563 L 105.106 65.248 C 104.744 63.899 105.498 62.395 106.982 61.998 L 118.177 58.998 C 121.279 58.167 123.056 55.089 122.225 51.987 C 121.394 48.884 118.316 47.107 115.213 47.938 L 104.018 50.938 C 102.534 51.336 101.13 50.411 100.769 49.062 L 99.54 44.477 C 99.143 42.993 99.896 41.489 101.38 41.092 L 119.993 36.105 C 122.691 35.382 124.504 32.439 123.745 29.606 C 122.986 26.774 119.944 25.132 117.246 25.855 L 102.14 29.902 C 100.926 30.227 99.756 29.095 100.006 27.872 L 100.962 22.267 C 101.337 19.889 99.357 17.812 97.049 17.814 L 97.049 17.814 Z  M 85.751 45.339 C 87.045 45.263 88.268 46.106 88.616 47.404 L 89.844 51.99 C 90.206 53.338 89.317 54.878 87.833 55.275 L 74.076 58.961 C 72.592 59.359 71.053 58.47 70.691 57.122 L 69.462 52.536 C 69.065 51.053 69.953 49.514 71.437 49.116 L 85.195 45.429 C 85.381 45.379 85.566 45.35 85.751 45.339 L 85.751 45.339 Z  M 23.943 48.649 C 23.275 48.662 22.606 48.755 21.949 48.932 C 18.981 49.727 17.618 53.272 19.321 55.852 L 21.682 59.267 C 23.664 62.349 27.551 63.91 31.193 62.934 C 34.295 62.103 35.524 58.595 33.821 56.015 L 31.46 52.599 C 29.71 50.014 26.839 48.589 23.943 48.649 L 23.943 48.649 Z  M 91.353 66.245 C 92.646 66.167 93.865 66.995 94.181 68.175 L 95.337 72.491 C 95.735 73.974 94.846 75.514 93.363 75.911 L 79.604 79.597 C 78.121 79.995 76.582 79.107 76.184 77.623 L 75.028 73.308 C 74.666 71.959 75.555 70.42 77.039 70.022 L 90.796 66.335 C 90.982 66.285 91.168 66.256 91.353 66.245 L 91.353 66.245 Z  M 96.846 86.746 C 98.14 86.67 99.363 87.514 99.711 88.812 L 100.903 93.262 C 101.3 94.746 100.375 96.15 98.891 96.547 L 85.134 100.233 C 83.651 100.631 82.148 99.878 81.751 98.394 L 80.558 93.944 C 80.16 92.46 81.048 90.921 82.532 90.523 L 96.29 86.836 C 96.476 86.786 96.661 86.757 96.846 86.747 L 96.846 86.746 Z  M 134.544 123.135 C 121.824 139.208 102.139 149.504 80.002 149.504 C 67.873 149.504 56.481 146.411 46.566 140.973 L 52.569 133.536 C 53.53 132.266 55.184 131.967 56.552 132.757 L 61.17 135.423 C 66.813 138.682 73.534 139.483 79.873 137.784 L 134.544 123.135 Z "/></g></svg>