<?xml version="1.0" encoding="UTF-8" standalone="no"?>
<!-- Created with Inkscape (http://www.inkscape.org/) -->

<svg
   xmlns:dc="http://purl.org/dc/elements/1.1/"
   xmlns:cc="http://creativecommons.org/ns#"
   xmlns:rdf="http://www.w3.org/1999/02/22-rdf-syntax-ns#"
   xmlns:svg="http://www.w3.org/2000/svg"
   xmlns="http://www.w3.org/2000/svg"
   xmlns:sodipodi="http://sodipodi.sourceforge.net/DTD/sodipodi-0.dtd"
   xmlns:inkscape="http://www.inkscape.org/namespaces/inkscape"
   width="600pt"
   height="160pt"
   viewBox="0 0 600 159.99999"
   version="1.1"
   id="svg8"
   inkscape:version="0.92.1 r15371"
   sodipodi:docname="logo.svg">
  <defs
     id="defs2" />
  <sodipodi:namedview
     id="base"
     pagecolor="#ffffff"
     bordercolor="#666666"
     borderopacity="1.0"
     inkscape:pageopacity="0.0"
     inkscape:pageshadow="2"
     inkscape:zoom="0.70710678"
     inkscape:cx="156.07037"
     inkscape:cy="87.701701"
     inkscape:document-units="pt"
     inkscape:current-layer="g4523"
     showgrid="true"
     showguides="false"
     inkscape:snap-bbox="true"
     inkscape:bbox-nodes="true"
     inkscape:snap-bbox-edge-midpoints="true"
     inkscape:snap-bbox-midpoints="true"
     inkscape:bbox-paths="true"
     inkscape:window-width="1920"
     inkscape:window-height="1017"
     inkscape:window-x="-8"
     inkscape:window-y="-8"
     inkscape:window-maximized="1"
     units="pt">
    <inkscape:grid
       type="xygrid"
       id="grid14" />
  </sodipodi:namedview>
  <metadata
     id="metadata5">
    <rdf:RDF>
      <cc:Work
         rdf:about="">
        <dc:format>image/svg+xml</dc:format>
        <dc:type
           rdf:resource="http://purl.org/dc/dcmitype/StillImage" />
        <dc:title></dc:title>
      </cc:Work>
    </rdf:RDF>
  </metadata>
  <g
     inkscape:label="レイヤー 1"
     inkscape:groupmode="layer"
     id="layer1"
     transform="translate(0,-266.44446)">
    <g
       id="g4523"
       transform="translate(-26.454551,44.975389)">
      <ellipse
         style="fill:#ffffff;fill-opacity:1;stroke:#800000;stroke-width:10.19091797;stroke-linecap:round;stroke-linejoin:round;stroke-miterlimit:4;stroke-dasharray:none;stroke-opacity:1"
         id="path4580"
         cx="112.47203"
         cy="303.36267"
         rx="65.59198"
         ry="64.34819" />
      <path
         style="color:#000000;font-style:normal;font-variant:normal;font-weight:normal;font-stretch:normal;font-size:medium;line-height:normal;font-family:sans-serif;font-variant-ligatures:normal;font-variant-position:normal;font-variant-caps:normal;font-variant-numeric:normal;font-variant-alternates:normal;font-feature-settings:normal;text-indent:0;text-align:start;text-decoration:none;text-decoration-line:none;text-decoration-style:solid;text-decoration-color:#000000;letter-spacing:normal;word-spacing:normal;text-transform:none;writing-mode:lr-tb;direction:ltr;text-orientation:mixed;dominant-baseline:auto;baseline-shift:baseline;text-anchor:start;white-space:normal;shape-padding:0;clip-rule:nonzero;display:inline;overflow:visible;visibility:visible;opacity:1;isolation:auto;mix-blend-mode:normal;color-interpolation:sRGB;color-interpolation-filters:linearRGB;solid-color:#000000;solid-opacity:1;vector-effect:none;fill:#800000;fill-opacity:1;fill-rule:nonzero;stroke:none;stroke-width:9.10253906;stroke-linecap:round;stroke-linejoin:round;stroke-miterlimit:4;stroke-dasharray:none;stroke-dashoffset:0;stroke-opacity:1;color-rendering:auto;image-rendering:auto;shape-rendering:auto;text-rendering:auto;enable-background:accumulate"
         d="m 112.59111,234.26163 c -38.278436,0 -69.409324,31.12594 -69.409324,69.40439 0,38.27845 31.130885,69.41057 69.409324,69.41057 38.27845,-6e-5 69.40563,-31.13212 69.40563,-69.41057 0,-38.27845 -31.12719,-69.40436 -69.40563,-69.40439 z m 0,9.10102 c 33.35906,0 60.3046,26.94435 60.3046,60.30337 0,9.02798 -1.97728,17.58449 -5.5173,25.26599 l -59.66254,15.9875 c -1.40423,0.37623 -2.96614,0.167 -4.27015,-0.48682 l -8.308614,-4.79638 c -1.33536,-0.77098 -2.29674,-2.0193 -2.673,-3.42352 l -7.336273,-27.38191 c -1.2542,-4.68079 -6.002696,-7.42155 -10.800455,-6.13598 l -9.829355,2.6336 c -2.574406,0.68978 -4.117019,3.36068 -3.427209,5.93505 0.689811,2.57441 3.360667,4.11581 5.935076,3.42597 l 6.553722,-1.75612 c 1.287205,-0.34487 2.505559,0.45785 2.850464,1.74502 l 6.302318,23.52097 c 0.376263,1.40422 0.01865,2.87926 -0.783784,4.0976 l -5.555507,6.88158 c -0.447631,0.58477 -0.839583,1.19825 -1.175677,1.8337 C 61.233879,339.9774 52.287743,322.88698 52.28774,303.66602 c 0,-33.35905 26.944311,-60.3034 60.30337,-60.30337 z m 14.78963,6.35408 c -0.28607,2e-4 -0.57751,0.0361 -0.87006,0.11454 -3.04248,0.81522 -5.34931,3.44098 -5.91535,6.47734 l -0.71231,4.83086 c -0.24018,1.44397 -1.30821,2.60853 -2.71244,2.98479 l -14.15989,3.79323 c -1.05316,0.28213 -2.06824,-0.69948 -1.85101,-1.76107 l 0.94646,-4.89373 c 0.48877,-2.38851 -1.6907,-4.4388 -4.031066,-3.81171 -3.159498,0.84659 -5.497808,3.35425 -6.149508,6.53895 l -3.955896,19.87312 c -0.760319,3.7155 2.731436,6.91819 6.359006,5.94619 1.170188,-0.31354 2.356988,0.37271 2.670538,1.54293 l 8.935886,33.3503 c 1.25419,4.68074 6.0335,7.53855 10.83126,6.25301 l 44.81869,-12.0094 c 2.34038,-0.62715 3.91314,-3.18069 3.25469,-5.63807 -0.65846,-2.45745 -3.32851,-3.99891 -5.66889,-3.37179 l -16.14892,4.32685 c -1.2872,0.34493 -2.47475,-0.34074 -2.81966,-1.62791 l -1.03395,-3.86105 c -0.34491,-1.28717 0.30871,-2.59183 1.59592,-2.93674 l 9.71227,-2.60148 c 2.69142,-0.7212 4.23409,-3.39274 3.54428,-5.96717 -0.72116,-2.6914 -3.39276,-4.23338 -6.08419,-3.51221 l -9.71228,2.60273 c -1.2872,0.34496 -2.50555,-0.45784 -2.85046,-1.74502 l -1.00315,-3.74391 c -0.31354,-1.17019 0.34076,-2.47476 1.62796,-2.81966 l 9.71228,-2.60276 c 2.69143,-0.72118 4.23341,-3.39152 3.51225,-6.08298 -0.72117,-2.69142 -3.39154,-4.23338 -6.08297,-3.51223 l -9.71351,2.60276 c -1.2872,0.3449 -2.50486,-0.45776 -2.81842,-1.62794 l -1.06599,-3.9781 c -0.34491,-1.2872 0.3087,-2.5918 1.59591,-2.93671 l 16.14893,-4.32685 c 2.34037,-0.62709 3.91313,-3.18068 3.25468,-5.63807 -0.65846,-2.45738 -3.29771,-3.88177 -5.63808,-3.25468 l -13.10621,3.51102 c -1.05317,0.28212 -2.06825,-0.69949 -1.85102,-1.76105 l 0.82938,-4.86292 c 0.32529,-2.06252 -1.39278,-3.86501 -3.39516,-3.86347 z m -9.80225,23.8808 c 1.12264,-0.0659 2.1839,0.66553 2.48569,1.79185 l 1.066,3.97807 c 0.31354,1.17018 -0.45783,2.50556 -1.74504,2.85047 l -11.93547,3.19799 c -1.2872,0.34491 -2.62317,-0.42572 -2.93672,-1.59591 l -1.066,-3.97809 c -0.34491,-1.2872 0.42579,-2.62264 1.71299,-2.96755 l 11.9367,-3.19922 c 0.16091,-0.0431 0.32148,-0.0682 0.48185,-0.0775 z m -53.623939,2.87139 c -0.579808,0.0117 -1.159776,0.0924 -1.730242,0.24541 -2.574409,0.68981 -3.757462,3.76618 -2.279878,6.00407 l 2.048193,2.96262 c 1.720024,2.6746 5.092422,4.02855 8.251925,3.18196 2.691424,-0.72117 3.757462,-3.76495 2.279875,-6.00285 l -2.04819,-2.96384 c -1.518076,-2.24273 -4.009185,-3.47945 -6.521683,-3.42722 z m 58.484399,15.26656 c 1.12221,-0.0676 2.17928,0.65088 2.45364,1.67478 l 1.00314,3.74395 c 0.34491,1.28717 -0.42578,2.62263 -1.71298,2.96751 l -11.9367,3.19802 c -1.28722,0.34488 -2.62265,-0.42578 -2.96755,-1.71304 l -1.00313,-3.74391 c -0.31356,-1.17016 0.45782,-2.50554 1.74502,-2.85044 l 11.93547,-3.19922 c 0.16091,-0.0431 0.32277,-0.0679 0.48309,-0.0775 z m 4.76556,17.78676 c 1.12263,-0.0659 2.18389,0.66556 2.48568,1.79185 l 1.03396,3.86096 c 0.3449,1.28726 -0.45783,2.5056 -1.74504,2.85047 l -11.93546,3.19803 c -1.2872,0.3449 -2.59059,-0.30874 -2.9355,-1.59591 l -1.03518,-3.86105 c -0.34491,-1.28718 0.42578,-2.62264 1.71298,-2.96752 l 11.9367,-3.19922 c 0.16091,-0.0431 0.32148,-0.0682 0.48186,-0.0775 z m 32.707,31.57072 c -11.03573,13.94474 -28.11451,22.87765 -47.3204,22.87765 -10.5232,0 -20.406484,-2.68346 -29.008665,-7.40156 l 5.207981,-6.45268 c 0.83368,-1.10131 2.26856,-1.36064 3.45555,-0.67532 l 4.006418,2.31311 c 4.896326,2.82689 10.726696,3.52192 16.226566,2.04822 z"
         id="path4605-4"
         inkscape:connector-curvature="0" />
      <path
         inkscape:connector-curvature="0"
         id="path4552"
         style="font-style:normal;font-variant:normal;font-weight:normal;font-stretch:normal;font-size:38.09999847px;line-height:1.25;font-family:Mamelon;-inkscape-font-specification:Mamelon;letter-spacing:0px;word-spacing:0px;fill:#000000;fill-opacity:1;stroke:none;stroke-width:0.77113557"
         d="m 225.47425,273.28529 c 2.66504,0 4.66382,1.99879 4.66382,4.66383 v 10.66018 c 0,1.11044 1.11044,2.22087 2.33192,2.22087 h 3.55339 c 2.66503,0 4.66382,1.99878 4.66382,4.77487 0,2.77609 -1.99879,4.77488 -4.66382,4.77488 h -3.55339 c -1.22148,0 -2.33192,1.11043 -2.33192,2.22087 v 12.43687 c 0,1.11044 1.11044,1.66565 1.99879,1.33252 l 2.10982,-0.99939 c 2.22086,-0.99939 4.66382,0.66626 4.66382,2.99818 0,3.22026 -1.88774,5.99635 -4.66382,7.32887 l -2.10982,0.99939 c -1.22148,0.55522 -1.99879,1.7767 -1.99879,3.10922 v 36.08915 c 0,2.66504 -1.99878,4.66383 -4.66382,4.66383 -2.66505,0 -4.77488,-1.99879 -4.77488,-4.66383 v -31.64741 c 0,-1.11043 -1.11043,-1.77669 -1.99878,-1.33252 l -2.99818,1.44357 c -2.33191,1.11043 -4.77487,-0.55522 -4.77487,-2.88714 0,-3.3313 1.88774,-6.21843 4.77487,-7.55096 l 2.88714,-1.33252 c 1.33252,-0.55522 2.10982,-1.88774 2.10982,-3.22026 v -16.76757 c 0,-1.22148 -0.99939,-2.22087 -2.10982,-2.22087 h -2.99818 c -2.66504,0 -4.66383,-1.99879 -4.66383,-4.77488 0,-2.77609 1.99879,-4.77487 4.66383,-4.77487 h 2.99818 c 1.11043,0 2.10982,-1.11043 2.10982,-2.22087 v -10.66018 c 0,-2.66504 2.10983,-4.66383 4.77488,-4.66383 z m 81.28388,34.64559 c 0,2.554 -1.99879,4.55278 -4.44174,4.55278 h -19.8768 c -1.22147,0 -2.10982,0.99939 -2.10982,2.10983 v 21.98662 c 0,2.554 -2.10983,4.55278 -4.66383,4.55278 -2.554,0 -4.55279,-1.99878 -4.55279,-4.55278 v -21.98662 c 0,-1.11044 -0.99939,-2.10983 -2.22087,-2.10983 h -19.87679 c -2.554,0 -4.55278,-1.99878 -4.55278,-4.55278 0,-2.55401 1.99878,-4.55279 4.55278,-4.55279 h 2.554 c 1.11044,0 1.99879,-0.7773 1.99879,-1.88774 v -12.54792 c 0,-2.44296 1.99878,-4.44174 4.44174,-4.44174 2.44296,0 4.44174,1.99878 4.44174,4.44174 v 12.32583 c 0,1.22148 0.99939,2.10983 2.22087,2.10983 h 4.3307 c 1.22148,0 2.22087,-0.88835 2.22087,-2.10983 v -22.2087 c 0,-2.44296 1.99878,-4.44174 4.44174,-4.44174 2.44296,0 4.55278,1.99878 4.55278,4.44174 v 1.44356 c 0,0.88835 0.66626,1.55461 1.55461,1.55461 h 11.32644 c 2.44296,0 4.44174,2.10983 4.44174,4.55279 0,2.554 -1.99878,4.55278 -4.44174,4.55278 h -10.77122 c -1.22148,0 -2.10983,0.99939 -2.10983,2.10983 v 7.99513 c 0,1.22148 0.88835,2.10983 2.10983,2.10983 h 19.98784 c 2.44295,0 4.44174,1.99878 4.44174,4.55279 z m -47.97081,13.54731 c 2.44296,0 3.99757,2.44295 2.88713,4.55278 l -3.10921,6.55157 c -1.33253,2.88713 -4.21966,4.66383 -7.43992,4.66383 -2.44296,0 -3.99757,-2.44296 -2.88713,-4.66383 l 3.10922,-6.55157 c 1.44356,-2.77609 4.33069,-4.55278 7.43991,-4.55278 z m 22.20871,19.09948 c 1.55461,-2.88713 4.55278,-4.66383 7.88409,-4.66383 2.44296,0 3.88652,2.66505 2.66504,4.66383 l -2.554,4.77488 c -2.66504,4.66382 -6.44052,8.32826 -11.21539,10.77122 l -24.09645,12.43687 c -2.10983,1.11044 -4.66383,-0.44417 -4.66383,-2.77609 0,-3.22026 1.88774,-6.21843 4.66383,-7.662 l 22.65288,-11.65957 c 1.22148,-0.55522 2.22087,-1.55461 2.99818,-2.77609 z m 12.10374,-19.09948 c 3.44235,0 6.55157,1.66565 8.32827,4.55278 l 5.99635,9.4387 c 1.22148,1.99878 -0.22209,4.55279 -2.554,4.55279 -3.44235,0 -6.55157,-1.66566 -8.32827,-4.55279 l -5.99635,-9.4387 c -1.22148,-1.99878 0.22209,-4.55278 2.554,-4.55278 z" />
      <path
         inkscape:connector-curvature="0"
         id="path4554"
         style="font-style:normal;font-variant:normal;font-weight:normal;font-stretch:normal;font-size:38.09999847px;line-height:1.25;font-family:Mamelon;-inkscape-font-specification:Mamelon;letter-spacing:0px;word-spacing:0px;fill:#000000;fill-opacity:1;stroke:none;stroke-width:0.77113557"
         d="m 343.84664,359.45507 c -2.44296,0.66626 -4.99696,-0.55521 -5.77427,-2.66504 -0.7773,-2.33192 0.22209,-4.99696 2.55401,-6.1074 14.76879,-5.33008 26.98357,-15.43505 36.97749,-30.20384 8.88348,-13.32522 12.54792,-25.42896 13.21418,-27.76088 0.66626,-2.10983 3.33131,-3.66444 5.77427,-3.10922 2.10982,0.77731 3.66443,3.33131 2.99817,5.77427 -0.66626,2.554 -4.66383,15.65713 -14.5467,30.20384 -4.66383,7.21783 -10.54914,13.54731 -16.54549,18.98844 -7.43991,6.44053 -15.65714,11.54853 -24.65166,14.87983 z" />
      <path
         inkscape:connector-curvature="0"
         id="path4556"
         style="font-style:normal;font-variant:normal;font-weight:normal;font-stretch:normal;font-size:38.09999847px;line-height:1.25;font-family:Mamelon;-inkscape-font-specification:Mamelon;letter-spacing:0px;word-spacing:0px;fill:#000000;fill-opacity:1;stroke:none;stroke-width:0.77113557"
         d="m 453.66869,317.03644 c 1.33252,1.99879 1.7767,2.10983 12.21479,1.55461 12.54792,-0.88834 39.86463,-1.99878 44.08428,-1.44356 4.55278,0.55522 5.44113,3.22026 5.44113,4.99696 0,1.77669 -0.88835,4.77487 -4.88591,4.66383 -9.54975,-0.44418 -33.20202,-0.44418 -44.19533,0.44417 -10.99331,0.99939 -15.21296,-0.33313 -18.43322,-3.66444 -2.10983,-2.554 -0.88835,-5.44113 0.22208,-6.44052 1.55461,-1.44357 4.21966,-1.99879 5.55218,-0.11105 z" />
      <path
         inkscape:connector-curvature="0"
         id="path4558"
         style="font-style:normal;font-variant:normal;font-weight:normal;font-stretch:normal;font-size:38.09999847px;line-height:1.25;font-family:Mamelon;-inkscape-font-specification:Mamelon;letter-spacing:0px;word-spacing:0px;fill:#000000;fill-opacity:1;stroke:none;stroke-width:0.77113557"
         d="m 582.61595,316.19907 c 0,1.22148 0.88835,2.22087 2.22087,2.22087 3.44235,0.11105 6.77366,0.44418 9.32766,1.99879 3.55339,1.77669 13.99148,11.21539 15.54609,12.65896 1.7767,1.55461 1.99878,4.55278 0.33313,6.10739 -1.77669,1.88774 -4.55278,1.66565 -5.99635,0.55522 -3.66444,-3.22026 -12.10374,-10.54914 -13.99148,-11.65957 -0.9994,-0.66626 -2.88714,-0.88835 -5.33009,-0.88835 -1.22148,0 -2.22087,0.88835 -2.22087,2.10983 0,14.43566 0,29.42653 0.22208,32.20262 0,2.77609 -1.99878,4.66383 -4.44174,4.66383 -2.22087,0 -4.3307,-1.44357 -4.3307,-4.21965 v -65.73777 c 0,-2.33192 1.99879,-4.44175 4.3307,-4.44175 2.33192,0 4.44174,2.10983 4.44174,4.44175 z" />
    </g>
  </g>
</svg>
