<svg xmlns="http://www.w3.org/2000/svg">
  <defs>
    <g id="icon">
      <path
        d="M 108.9707 -0.81054688 C 99.903309 -0.72462883 90.70293 0.49390933 81.546875 2.9472656 C 22.948124 18.648746 -11.94173 79.069229 3.7597656 137.66797 C 19.461261 196.26671 79.887592 231.15461 138.48633 215.45312 C 197.08506 199.75161 231.96709 139.3253 216.26562 80.726562 C 203.0175 31.283875 157.93463 -1.2745043 108.9707 -0.81054688 z M 109.15625 13.591797 C 151.74913 13.142182 190.7865 41.372445 202.33203 84.460938 C 208.35825 106.95111 205.86937 129.67742 196.83984 149.24219 L 102.28906 174.57812 C 100.06357 175.17444 97.58815 174.84306 95.521484 173.80664 L 82.353516 166.20312 C 80.237156 164.98124 78.713507 163.00479 78.117188 160.7793 L 66.490234 117.38281 C 64.502504 109.9645 56.976815 105.61883 49.373047 107.65625 L 33.794922 111.83203 C 29.714851 112.92528 27.27003 117.15626 28.363281 121.23633 C 29.456533 125.3164 33.689461 127.76122 37.769531 126.66797 L 48.15625 123.88477 C 50.196285 123.33814 52.127202 124.61036 52.673828 126.65039 L 62.662109 163.92773 C 63.258428 166.15323 62.691496 168.49097 61.419922 170.42188 L 52.615234 181.32812 C 51.905448 182.25543 51.284787 183.22863 50.751953 184.23633 C 35.153877 171.92558 23.249524 154.64564 17.699219 133.93164 C 4.0156131 82.86376 34.211398 30.562497 85.279297 16.878906 C 93.258656 14.740839 101.26868 13.675059 109.15625 13.591797 z M 133.45508 23.693359 C 133.00172 23.693709 132.53982 23.75272 132.07617 23.876953 C 127.25427 25.168978 123.59826 29.328471 122.70117 34.140625 L 121.57227 41.798828 C 121.1916 44.08733 119.49893 45.931025 117.27344 46.527344 L 94.833984 52.541016 C 93.164865 52.988255 91.554153 51.432435 91.898438 49.75 L 93.398438 41.992188 C 94.173079 38.206709 90.718921 34.95926 87.009766 35.953125 C 82.002406 37.294843 78.296527 41.269101 77.263672 46.316406 L 70.994141 77.8125 C 69.789143 83.701023 75.323074 88.776819 81.072266 87.236328 C 82.926843 86.739396 84.807755 87.82511 85.304688 89.679688 L 99.466797 142.53516 C 101.45453 149.95347 109.02904 154.48469 116.63281 152.44727 L 187.66406 133.41406 C 191.37322 132.4202 193.86582 128.37313 192.82227 124.47852 C 191.77871 120.5839 187.54705 118.1409 183.83789 119.13477 L 158.24414 125.99219 C 156.20411 126.53881 154.32202 125.45214 153.77539 123.41211 L 152.13672 117.29297 C 151.59009 115.25293 152.62598 113.1853 154.66602 112.63867 L 170.05859 108.51367 C 174.32412 107.37073 176.76903 103.13866 175.67578 99.058594 C 174.53284 94.793065 170.29873 92.349243 166.0332 93.492188 L 150.64062 97.617188 C 148.60059 98.163813 146.66967 96.891598 146.12305 94.851562 L 144.5332 88.917969 C 144.03627 87.063391 145.07325 84.995845 147.11328 84.449219 L 162.50586 80.324219 C 166.77139 79.181274 169.21521 74.949122 168.07227 70.683594 C 166.92932 66.418065 162.69717 63.974243 158.43164 65.117188 L 143.03711 69.242188 C 140.99707 69.788813 139.06725 68.516687 138.57031 66.662109 L 136.88086 60.357422 C 136.33423 58.317387 137.37012 56.249751 139.41016 55.703125 L 165.00391 48.845703 C 168.71306 47.851838 171.20567 43.804769 170.16211 39.910156 C 169.11855 36.015543 164.93572 33.756135 161.22656 34.75 L 140.45508 40.316406 C 138.78596 40.763646 137.1772 39.207826 137.52148 37.525391 L 138.83594 29.818359 C 139.35147 26.549547 136.62858 23.690913 133.45508 23.693359 z M 117.91992 61.542969 C 119.69914 61.438539 121.38108 62.595828 121.85938 64.380859 L 123.54883 70.6875 C 124.04576 72.542078 122.82324 74.658452 120.7832 75.205078 L 101.86719 80.273438 C 99.827152 80.820063 97.709823 79.598718 97.212891 77.744141 L 95.523438 71.4375 C 94.976812 69.397465 96.198246 67.281001 98.238281 66.734375 L 117.15625 61.666016 C 117.41125 61.597687 117.66575 61.557887 117.91992 61.542969 z M 32.933594 66.09375 C 32.014681 66.112858 31.095513 66.240167 30.191406 66.482422 C 26.111336 67.575674 24.236362 72.451287 26.578125 75.998047 L 29.824219 80.693359 C 32.550212 84.932257 37.894984 87.078046 42.902344 85.736328 C 47.167872 84.593383 48.857388 79.767463 46.515625 76.220703 L 43.269531 71.525391 C 40.863601 67.970977 36.915548 66.010948 32.933594 66.09375 z M 125.62305 90.289062 C 127.40159 90.182097 129.0769 91.318651 129.51172 92.941406 L 131.10156 98.876953 C 131.64819 100.91699 130.42675 103.03345 128.38672 103.58008 L 109.46875 108.64844 C 107.42871 109.19506 105.31225 107.97363 104.76562 105.93359 L 103.17578 99.998047 C 102.67885 98.143469 103.90137 96.027095 105.94141 95.480469 L 124.85742 90.412109 C 125.11243 90.343781 125.36897 90.304343 125.62305 90.289062 z M 133.17578 118.47852 C 134.955 118.37409 136.63694 119.53138 137.11523 121.31641 L 138.75391 127.4375 C 139.30053 129.47754 138.02832 131.40845 135.98828 131.95508 L 117.07227 137.02344 C 115.03223 137.57006 112.96655 136.53418 112.41992 134.49414 L 110.7793 128.37305 C 110.23267 126.33301 111.45411 124.21655 113.49414 123.66992 L 132.41211 118.60156 C 132.66711 118.53323 132.92161 118.49343 133.17578 118.47852 z M 185.01367 168.51172 C 172.70553 184.08461 155.44326 195.96946 134.75195 201.51367 C 109.95202 208.15879 84.862626 204.4536 64.044922 193.03711 L 72.294922 182.8125 C 73.616189 181.06706 75.890276 180.65802 77.771484 181.74414 L 84.121094 185.4082 C 91.881077 189.88843 101.12138 190.99183 109.83789 188.65625 L 185.01367 168.51172 z "
        transform="matrix(0.4545,0,0,0.4545,0,0)"
        id="path4605-4"
      />
    </g>
  </defs>
</svg>
