<?xml version="1.0" encoding="UTF-8" standalone="no"?>
<!-- Created with Inkscape (http://www.inkscape.org/) -->

<svg
   xmlns:dc="http://purl.org/dc/elements/1.1/"
   xmlns:cc="http://creativecommons.org/ns#"
   xmlns:rdf="http://www.w3.org/1999/02/22-rdf-syntax-ns#"
   xmlns:svg="http://www.w3.org/2000/svg"
   xmlns="http://www.w3.org/2000/svg"
   xmlns:sodipodi="http://sodipodi.sourceforge.net/DTD/sodipodi-0.dtd"
   xmlns:inkscape="http://www.inkscape.org/namespaces/inkscape"
   width="600pt"
   height="200pt"
   viewBox="0 0 600 199.99999"
   version="1.1"
   id="svg8"
   inkscape:version="0.92.1 r15371"
   sodipodi:docname="ShinchokuNoteLogo.svg">
  <defs
     id="defs2" />
  <sodipodi:namedview
     id="base"
     pagecolor="#ffffff"
     bordercolor="#666666"
     borderopacity="1.0"
     inkscape:pageopacity="0.0"
     inkscape:pageshadow="2"
     inkscape:zoom="1"
     inkscape:cx="392.34027"
     inkscape:cy="164.09858"
     inkscape:document-units="pt"
     inkscape:current-layer="g4523"
     showgrid="true"
     showguides="false"
     inkscape:snap-bbox="true"
     inkscape:bbox-nodes="true"
     inkscape:snap-bbox-edge-midpoints="true"
     inkscape:snap-bbox-midpoints="true"
     inkscape:bbox-paths="true"
     inkscape:window-width="1920"
     inkscape:window-height="1017"
     inkscape:window-x="-8"
     inkscape:window-y="-8"
     inkscape:window-maximized="1"
     units="pt">
    <inkscape:grid
       type="xygrid"
       id="grid14" />
  </sodipodi:namedview>
  <metadata
     id="metadata5">
    <rdf:RDF>
      <cc:Work
         rdf:about="">
        <dc:format>image/svg+xml</dc:format>
        <dc:type
           rdf:resource="http://purl.org/dc/dcmitype/StillImage" />
        <dc:title></dc:title>
      </cc:Work>
    </rdf:RDF>
  </metadata>
  <g
     inkscape:label="レイヤー 1"
     inkscape:groupmode="layer"
     id="layer1"
     transform="translate(0,-226.44446)">
    <g
       id="g4523"
       transform="translate(-26.454551,44.975389)">
      <circle
         style="fill:#ffffff;fill-opacity:1;stroke:#800000;stroke-width:10.28180885;stroke-linecap:round;stroke-linejoin:round;stroke-miterlimit:4;stroke-dasharray:none;stroke-opacity:1"
         id="path4580"
         cx="106.92982"
         cy="259.91882"
         r="65.546532" />
      <path
         style="color:#000000;font-style:normal;font-variant:normal;font-weight:normal;font-stretch:normal;font-size:medium;line-height:normal;font-family:sans-serif;font-variant-ligatures:normal;font-variant-position:normal;font-variant-caps:normal;font-variant-numeric:normal;font-variant-alternates:normal;font-feature-settings:normal;text-indent:0;text-align:start;text-decoration:none;text-decoration-line:none;text-decoration-style:solid;text-decoration-color:#000000;letter-spacing:normal;word-spacing:normal;text-transform:none;writing-mode:lr-tb;direction:ltr;text-orientation:mixed;dominant-baseline:auto;baseline-shift:baseline;text-anchor:start;white-space:normal;shape-padding:0;clip-rule:nonzero;display:inline;overflow:visible;visibility:visible;opacity:1;isolation:auto;mix-blend-mode:normal;color-interpolation:sRGB;color-interpolation-filters:linearRGB;solid-color:#000000;solid-opacity:1;vector-effect:none;fill:#800000;fill-opacity:1;fill-rule:nonzero;stroke:none;stroke-width:9.10253906;stroke-linecap:round;stroke-linejoin:round;stroke-miterlimit:4;stroke-dasharray:none;stroke-dashoffset:0;stroke-opacity:1;color-rendering:auto;image-rendering:auto;shape-rendering:auto;text-rendering:auto;enable-background:accumulate"
         d="m 107.04892,192.06159 c -38.278438,0 -69.409326,31.12594 -69.409326,69.40439 0,38.27845 31.130885,69.41057 69.409326,69.41057 38.27845,-6e-5 69.40563,-31.13212 69.40563,-69.41057 0,-38.27845 -31.12719,-69.40436 -69.40563,-69.40439 z m 0,9.10102 c 33.35906,0 60.3046,26.94435 60.3046,60.30337 0,9.02798 -1.97728,17.58449 -5.5173,25.26599 l -59.66254,15.9875 c -1.40422,0.37623 -2.96614,0.167 -4.27015,-0.48682 l -8.308612,-4.79638 c -1.335361,-0.77098 -2.296741,-2.0193 -2.673001,-3.42352 l -7.336276,-27.38191 c -1.2542,-4.68079 -6.002696,-7.42155 -10.800455,-6.13598 l -9.829355,2.6336 c -2.574406,0.68978 -4.117019,3.36068 -3.427209,5.93505 0.689811,2.57441 3.360667,4.11581 5.935076,3.42597 l 6.553722,-1.75612 c 1.287205,-0.34487 2.505559,0.45785 2.850464,1.74502 l 6.302318,23.52097 c 0.376263,1.40422 0.01865,2.87926 -0.783784,4.0976 l -5.555507,6.88158 c -0.447631,0.58477 -0.839583,1.19825 -1.175677,1.8337 -13.963547,-11.03487 -22.909683,-28.12529 -22.909686,-47.34625 0,-33.35905 26.944311,-60.3034 60.303372,-60.30337 z m 14.78963,6.35408 c -0.28607,2e-4 -0.57751,0.0361 -0.87006,0.11454 -3.04248,0.81522 -5.34931,3.44098 -5.91535,6.47734 l -0.71231,4.83086 c -0.24018,1.44397 -1.30821,2.60853 -2.71244,2.98479 l -14.159885,3.79323 c -1.053165,0.28213 -2.068246,-0.69948 -1.851011,-1.76107 l 0.946455,-4.89373 c 0.488778,-2.38851 -1.690698,-4.4388 -4.03107,-3.81171 -3.1595,0.84659 -5.497803,3.35425 -6.149506,6.53895 l -3.955895,19.87312 c -0.760319,3.7155 2.731435,6.91819 6.359008,5.94619 1.170186,-0.31354 2.356988,0.37271 2.670539,1.54293 l 8.935885,33.3503 c 1.2542,4.68074 6.0335,7.53855 10.83126,6.25301 l 44.81869,-12.0094 c 2.34038,-0.62715 3.91314,-3.18069 3.25469,-5.63807 -0.65846,-2.45745 -3.32851,-3.99891 -5.66889,-3.37179 l -16.14892,4.32685 c -1.2872,0.34493 -2.47475,-0.34074 -2.81966,-1.62791 l -1.03395,-3.86105 c -0.34491,-1.28717 0.30871,-2.59183 1.59592,-2.93674 l 9.71227,-2.60148 c 2.69142,-0.7212 4.23409,-3.39274 3.54428,-5.96717 -0.72116,-2.6914 -3.39276,-4.23338 -6.08419,-3.51221 l -9.71228,2.60273 c -1.2872,0.34496 -2.50555,-0.45784 -2.85046,-1.74502 l -1.00315,-3.74391 c -0.31354,-1.17019 0.34076,-2.47476 1.62796,-2.81966 l 9.71228,-2.60276 c 2.69143,-0.72118 4.23341,-3.39152 3.51225,-6.08298 -0.72117,-2.69142 -3.39154,-4.23338 -6.08297,-3.51223 l -9.71351,2.60276 c -1.2872,0.3449 -2.50486,-0.45776 -2.81842,-1.62794 l -1.06599,-3.9781 c -0.34491,-1.2872 0.3087,-2.5918 1.59591,-2.93671 l 16.14893,-4.32685 c 2.34037,-0.62709 3.91313,-3.18068 3.25468,-5.63807 -0.65846,-2.45738 -3.29771,-3.88177 -5.63808,-3.25468 l -13.10621,3.51102 c -1.05317,0.28212 -2.06825,-0.69949 -1.85102,-1.76105 l 0.82938,-4.86292 c 0.32529,-2.06252 -1.39278,-3.86501 -3.39516,-3.86347 z m -9.80225,23.8808 c 1.12264,-0.0659 2.1839,0.66553 2.48569,1.79185 l 1.066,3.97807 c 0.31354,1.17018 -0.45783,2.50556 -1.74504,2.85047 l -11.93546,3.19799 c -1.2872,0.34491 -2.623179,-0.42572 -2.936729,-1.59591 l -1.065998,-3.97809 c -0.344905,-1.2872 0.425787,-2.62264 1.712991,-2.96755 l 11.936696,-3.19922 c 0.16091,-0.0431 0.32148,-0.0682 0.48185,-0.0775 z m -53.623941,2.87139 c -0.579808,0.0117 -1.159776,0.0924 -1.730242,0.24541 -2.574409,0.68981 -3.757462,3.76618 -2.279878,6.00407 l 2.048193,2.96262 c 1.720024,2.6746 5.092422,4.02855 8.251925,3.18196 2.691424,-0.72117 3.757462,-3.76495 2.279875,-6.00285 l -2.04819,-2.96384 c -1.518076,-2.24273 -4.009185,-3.47945 -6.521683,-3.42722 z m 58.484401,15.26656 c 1.12221,-0.0676 2.17928,0.65088 2.45364,1.67478 l 1.00314,3.74395 c 0.34491,1.28717 -0.42578,2.62263 -1.71298,2.96751 l -11.9367,3.19802 c -1.28721,0.34488 -2.62264,-0.42578 -2.96754,-1.71304 l -1.00314,-3.74391 c -0.31356,-1.17016 0.45782,-2.50554 1.74503,-2.85044 l 11.93546,-3.19922 c 0.16091,-0.0431 0.32277,-0.0679 0.48309,-0.0775 z m 4.76556,17.78676 c 1.12263,-0.0659 2.18389,0.66556 2.48568,1.79185 l 1.03396,3.86096 c 0.3449,1.28726 -0.45783,2.5056 -1.74504,2.85047 l -11.93546,3.19803 c -1.2872,0.3449 -2.59059,-0.30874 -2.9355,-1.59591 l -1.03518,-3.86105 c -0.34491,-1.28718 0.42578,-2.62264 1.71298,-2.96752 l 11.9367,-3.19922 c 0.16091,-0.0431 0.32148,-0.0682 0.48186,-0.0775 z m 32.707,31.57072 c -11.03573,13.94474 -28.11451,22.87765 -47.3204,22.87765 -10.523192,0 -20.406486,-2.68346 -29.008667,-7.40156 l 5.207979,-6.45268 c 0.833684,-1.10131 2.268567,-1.36064 3.455556,-0.67532 l 4.006421,2.31311 c 4.896329,2.82689 10.726701,3.52192 16.226561,2.04822 z"
         id="path4605-4"
         inkscape:connector-curvature="0" />
      <path
         inkscape:connector-curvature="0"
         id="path4552"
         style="font-style:normal;font-variant:normal;font-weight:normal;font-stretch:normal;font-size:38.09999847px;line-height:1.25;font-family:Mamelon;-inkscape-font-specification:Mamelon;letter-spacing:0px;word-spacing:0px;fill:#000000;fill-opacity:1;stroke:none;stroke-width:0.77113557"
         d="m 221.84139,230.77879 c 2.66504,0 4.66382,1.99879 4.66382,4.66383 v 10.66018 c 0,1.11044 1.11044,2.22087 2.33192,2.22087 h 3.55339 c 2.66503,0 4.66382,1.99878 4.66382,4.77487 0,2.77609 -1.99879,4.77488 -4.66382,4.77488 h -3.55339 c -1.22148,0 -2.33192,1.11043 -2.33192,2.22087 v 12.43687 c 0,1.11044 1.11044,1.66565 1.99879,1.33252 l 2.10982,-0.99939 c 2.22086,-0.99939 4.66382,0.66626 4.66382,2.99818 0,3.22026 -1.88774,5.99635 -4.66382,7.32887 l -2.10982,0.99939 c -1.22148,0.55522 -1.99879,1.7767 -1.99879,3.10922 v 36.08915 c 0,2.66504 -1.99878,4.66383 -4.66382,4.66383 -2.66505,0 -4.77488,-1.99879 -4.77488,-4.66383 v -31.64741 c 0,-1.11043 -1.11043,-1.77669 -1.99878,-1.33252 l -2.99818,1.44357 c -2.33191,1.11043 -4.77487,-0.55522 -4.77487,-2.88714 0,-3.3313 1.88774,-6.21843 4.77487,-7.55096 l 2.88714,-1.33252 c 1.33252,-0.55522 2.10982,-1.88774 2.10982,-3.22026 v -16.76757 c 0,-1.22148 -0.99939,-2.22087 -2.10982,-2.22087 h -2.99818 c -2.66504,0 -4.66383,-1.99879 -4.66383,-4.77488 0,-2.77609 1.99879,-4.77487 4.66383,-4.77487 h 2.99818 c 1.11043,0 2.10982,-1.11043 2.10982,-2.22087 v -10.66018 c 0,-2.66504 2.10983,-4.66383 4.77488,-4.66383 z m 81.28388,34.64559 c 0,2.554 -1.99879,4.55278 -4.44174,4.55278 h -19.8768 c -1.22147,0 -2.10982,0.99939 -2.10982,2.10983 v 21.98662 c 0,2.554 -2.10983,4.55278 -4.66383,4.55278 -2.554,0 -4.55279,-1.99878 -4.55279,-4.55278 v -21.98662 c 0,-1.11044 -0.99939,-2.10983 -2.22087,-2.10983 h -19.87679 c -2.554,0 -4.55278,-1.99878 -4.55278,-4.55278 0,-2.55401 1.99878,-4.55279 4.55278,-4.55279 h 2.554 c 1.11044,0 1.99879,-0.7773 1.99879,-1.88774 v -12.54792 c 0,-2.44296 1.99878,-4.44174 4.44174,-4.44174 2.44296,0 4.44174,1.99878 4.44174,4.44174 v 12.32583 c 0,1.22148 0.99939,2.10983 2.22087,2.10983 h 4.3307 c 1.22148,0 2.22087,-0.88835 2.22087,-2.10983 v -22.2087 c 0,-2.44296 1.99878,-4.44174 4.44174,-4.44174 2.44296,0 4.55278,1.99878 4.55278,4.44174 v 1.44356 c 0,0.88835 0.66626,1.55461 1.55461,1.55461 h 11.32644 c 2.44296,0 4.44174,2.10983 4.44174,4.55279 0,2.554 -1.99878,4.55278 -4.44174,4.55278 h -10.77122 c -1.22148,0 -2.10983,0.99939 -2.10983,2.10983 v 7.99513 c 0,1.22148 0.88835,2.10983 2.10983,2.10983 h 19.98784 c 2.44295,0 4.44174,1.99878 4.44174,4.55279 z m -47.97081,13.54731 c 2.44296,0 3.99757,2.44295 2.88713,4.55278 l -3.10921,6.55157 c -1.33253,2.88713 -4.21966,4.66383 -7.43992,4.66383 -2.44296,0 -3.99757,-2.44296 -2.88713,-4.66383 l 3.10922,-6.55157 c 1.44356,-2.77609 4.33069,-4.55278 7.43991,-4.55278 z m 22.20871,19.09948 c 1.55461,-2.88713 4.55278,-4.66383 7.88409,-4.66383 2.44296,0 3.88652,2.66505 2.66504,4.66383 l -2.554,4.77488 c -2.66504,4.66382 -6.44052,8.32826 -11.21539,10.77122 l -24.09645,12.43687 c -2.10983,1.11044 -4.66383,-0.44417 -4.66383,-2.77609 0,-3.22026 1.88774,-6.21843 4.66383,-7.662 l 22.65288,-11.65957 c 1.22148,-0.55522 2.22087,-1.55461 2.99818,-2.77609 z m 12.10374,-19.09948 c 3.44235,0 6.55157,1.66565 8.32827,4.55278 l 5.99635,9.4387 c 1.22148,1.99878 -0.22209,4.55279 -2.554,4.55279 -3.44235,0 -6.55157,-1.66566 -8.32827,-4.55279 l -5.99635,-9.4387 c -1.22148,-1.99878 0.22209,-4.55278 2.554,-4.55278 z" />
      <path
         inkscape:connector-curvature="0"
         id="path4554"
         style="font-style:normal;font-variant:normal;font-weight:normal;font-stretch:normal;font-size:38.09999847px;line-height:1.25;font-family:Mamelon;-inkscape-font-specification:Mamelon;letter-spacing:0px;word-spacing:0px;fill:#000000;fill-opacity:1;stroke:none;stroke-width:0.77113557"
         d="m 340.21378,316.94857 c -2.44296,0.66626 -4.99696,-0.55521 -5.77427,-2.66504 -0.7773,-2.33192 0.22209,-4.99696 2.55401,-6.1074 14.76879,-5.33008 26.98357,-15.43505 36.97749,-30.20384 8.88348,-13.32522 12.54792,-25.42896 13.21418,-27.76088 0.66626,-2.10983 3.33131,-3.66444 5.77427,-3.10922 2.10982,0.77731 3.66443,3.33131 2.99817,5.77427 -0.66626,2.554 -4.66383,15.65713 -14.5467,30.20384 -4.66383,7.21783 -10.54914,13.54731 -16.54549,18.98844 -7.43991,6.44053 -15.65714,11.54853 -24.65166,14.87983 z" />
      <path
         inkscape:connector-curvature="0"
         id="path4556"
         style="font-style:normal;font-variant:normal;font-weight:normal;font-stretch:normal;font-size:38.09999847px;line-height:1.25;font-family:Mamelon;-inkscape-font-specification:Mamelon;letter-spacing:0px;word-spacing:0px;fill:#000000;fill-opacity:1;stroke:none;stroke-width:0.77113557"
         d="m 450.03583,274.52994 c 1.33252,1.99879 1.7767,2.10983 12.21479,1.55461 12.54792,-0.88834 39.86463,-1.99878 44.08428,-1.44356 4.55278,0.55522 5.44113,3.22026 5.44113,4.99696 0,1.77669 -0.88835,4.77487 -4.88591,4.66383 -9.54975,-0.44418 -33.20202,-0.44418 -44.19533,0.44417 -10.99331,0.99939 -15.21296,-0.33313 -18.43322,-3.66444 -2.10983,-2.554 -0.88835,-5.44113 0.22208,-6.44052 1.55461,-1.44357 4.21966,-1.99879 5.55218,-0.11105 z" />
      <path
         inkscape:connector-curvature="0"
         id="path4558"
         style="font-style:normal;font-variant:normal;font-weight:normal;font-stretch:normal;font-size:38.09999847px;line-height:1.25;font-family:Mamelon;-inkscape-font-specification:Mamelon;letter-spacing:0px;word-spacing:0px;fill:#000000;fill-opacity:1;stroke:none;stroke-width:0.77113557"
         d="m 586.50833,268.75568 c 0,1.22148 0.88835,2.22087 2.22087,2.22087 3.44235,0.11105 6.77366,0.44418 9.32766,1.99879 3.55339,1.77669 13.99148,11.21539 15.54609,12.65896 1.7767,1.55461 1.99878,4.55278 0.33313,6.10739 -1.77669,1.88774 -4.55278,1.66565 -5.99635,0.55522 -3.66444,-3.22026 -12.10374,-10.54914 -13.99148,-11.65957 -0.9994,-0.66626 -2.88714,-0.88835 -5.33009,-0.88835 -1.22148,0 -2.22087,0.88835 -2.22087,2.10983 0,14.43566 0,29.42653 0.22208,32.20262 0,2.77609 -1.99878,4.66383 -4.44174,4.66383 -2.22087,0 -4.3307,-1.44357 -4.3307,-4.21965 v -65.73777 c 0,-2.33192 1.99879,-4.44175 4.3307,-4.44175 2.33192,0 4.44174,2.10983 4.44174,4.44175 z" />
      <path
         inkscape:connector-curvature="0"
         id="path4523"
         style="font-style:normal;font-variant:normal;font-weight:normal;font-stretch:normal;font-size:9.87777805px;line-height:1.25;font-family:Mamelon;-inkscape-font-specification:Mamelon;letter-spacing:4.76249981px;word-spacing:0px;fill:#000000;fill-opacity:1;stroke:none;stroke-width:0.77113557"
         d="m 41.545992,363.82468 c 0.834884,2.1592 4.088048,2.87891 6.8518,0.86369 2.303124,-1.6122 6.938163,-7.13969 8.147304,-8.52158 0.172744,-0.2014 0.374258,-0.28796 0.60457,-0.17283 0.662148,0.37425 2.015236,1.41066 2.130392,3.62742 0.115153,3.82893 -3.512266,4.98049 -6.966956,5.64264 -0.633359,0.0863 -1.036406,0.63336 -0.978827,1.26674 0.08636,0.66213 0.604569,0.97882 1.439454,0.86367 2.360703,-0.40305 6.506329,-1.26672 8.23367,-4.80778 1.266722,-3.31076 0.05759,-6.3048 -1.554609,-7.77305 -3.051639,-2.67737 -7.571522,-1.69856 -8.953399,-1.29551 -0.201511,0.0292 -0.345468,-0.0863 -0.345468,-0.2591 0,-0.31669 0,-0.63335 0.02885,-0.89246 0,-0.2591 0.143949,-0.40305 0.374257,-0.43184 2.101603,-0.40305 4.260782,-1.20915 5.297188,-1.78492 1.093986,-0.66215 0.92125,-1.2955 0.662149,-1.66976 -0.259102,-0.31669 -0.806095,-0.57579 -1.324298,-0.2591 -1.209139,0.547 -2.936483,1.15156 -4.462303,1.43946 -0.230306,0.0291 -0.374258,-0.0577 -0.345471,-0.28796 0.172744,-1.20915 0.518203,-2.38951 0.863674,-2.87891 0.345468,-0.51821 0.172744,-1.26672 -0.287897,-1.58341 -0.546993,-0.31666 -1.209142,-0.14398 -1.468243,0.28796 -0.863671,1.5834 -1.209142,3.71378 -1.324298,4.54867 -0.02885,0.2591 -0.143948,0.40305 -0.403047,0.40305 -1.813711,0.0863 -3.541053,-0.11512 -5.038086,-0.14397 -0.633359,-0.0291 -1.065193,0.43184 -1.122772,0.86366 -0.08636,0.43184 -0.05759,1.0364 0.806094,1.20915 1.151562,0.23025 3.627422,0.20139 5.239608,0.11512 0.230306,-0.0291 0.345471,0.11513 0.345471,0.34546 0,0.60459 0.02885,1.12279 0.02885,1.49705 0.02885,0.23025 -0.08636,0.43184 -0.259101,0.547 -1.122773,0.54697 -2.274335,1.26671 -3.166795,2.10158 -2.562226,2.36071 -3.656212,5.26841 -3.051643,7.13969 z m 5.527502,-0.83486 c -1.122775,0.7485 -2.303124,1.00761 -3.022853,0.4894 -0.777304,-0.46061 -0.518203,-1.46825 -0.115153,-2.3895 0.259102,-0.77731 1.49703,-2.67738 4.03047,-4.14563 0.08636,-0.0863 0.259101,0 0.287897,0.14398 0.230306,1.6122 0.54699,2.99407 0.748515,3.65622 0.05759,0.2591 -0.02885,0.46064 -0.230306,0.66215 -0.690939,0.69095 -1.295508,1.29551 -1.698555,1.5834 z m 3.771368,-4.05927 c -0.172744,-0.77731 -0.374258,-1.72736 -0.518204,-2.67738 -0.02885,-0.2591 0.115154,-0.43184 0.316679,-0.5182 0.633359,-0.23025 1.90008,-0.57579 3.39711,-0.5182 0.08636,0 0.20151,0.14398 0.08636,0.23025 -0.806091,1.00761 -1.928867,2.30311 -3.02285,3.51226 -0.08636,0.11513 -0.259101,0.0574 -0.259101,-0.0291 z" />
      <path
         inkscape:connector-curvature="0"
         id="path4525"
         style="font-style:normal;font-variant:normal;font-weight:normal;font-stretch:normal;font-size:9.87777805px;line-height:1.25;font-family:Mamelon;-inkscape-font-specification:Mamelon;letter-spacing:4.76249981px;word-spacing:0px;fill:#000000;fill-opacity:1;stroke:none;stroke-width:0.77113557"
         d="m 91.729443,351.30145 c -0.259102,0.0577 -0.460624,0.23025 -0.54699,0.48941 -0.892463,2.73496 -2.850117,7.8882 -5.469923,12.23536 -0.259101,0.43185 -0.95004,0.63336 -1.468243,0.31667 -0.57578,-0.31667 -0.690938,-0.95002 -0.403047,-1.55461 2.159182,-3.31073 3.800157,-7.28361 4.89414,-10.59437 0.05759,-0.23025 -0.115153,-0.40305 -0.316678,-0.37426 -0.777305,0.0292 -1.669765,0.0577 -2.47586,0.0577 -0.259101,0 -0.518203,0 -0.777305,0 -0.518203,0 -1.065196,-0.48944 -1.036406,-1.03641 0,-0.547 0.518203,-1.00764 1.036406,-1.00764 1.324298,0 2.648596,0 3.915314,-0.11512 0.259101,-0.0292 0.460624,-0.23025 0.546993,-0.5182 0.518203,-1.61217 0.834881,-2.99407 0.950037,-3.77137 0.08636,-0.57577 0.719728,-0.95002 1.295508,-0.86367 0.546993,0.11513 1.065196,0.71972 0.92125,1.29551 -0.172744,0.63336 -0.403047,1.64097 -0.690938,2.85012 -0.05756,0.17283 0.08636,0.34546 0.259101,0.2591 0.719728,-0.28795 1.468243,-0.60456 2.187972,-0.97881 0.489413,-0.3167 1.209138,-0.11513 1.46824,0.37425 0.259101,0.40305 0.143948,1.15156 -0.374258,1.41066 -1.324297,0.74851 -2.619805,1.23792 -3.915313,1.52581 z m 12.235357,12.09142 c 0.5182,0.2591 0.57578,0.97881 0.2303,1.46822 -0.31668,0.46064 -1.06519,0.57579 -1.5834,0.20168 -1.00761,-0.74851 -2.13039,-1.23794 -3.022847,-1.55461 -0.20151,-0.0577 -0.431836,0.0292 -0.460626,0.25911 -0.345468,1.81371 -1.180352,2.67737 -2.677382,3.19557 -2.389494,0.66215 -3.742578,-0.20139 -4.836564,-1.23791 -0.863671,-0.8637 -1.266718,-1.92887 -1.007616,-2.87892 0.403047,-0.97884 1.612189,-2.41827 5.642658,-2.24555 0.230306,0 0.374257,-0.2014 0.345468,-0.43182 -0.05759,-0.37428 -0.143949,-1.03641 -0.230306,-1.58341 -0.287898,-1.8713 -0.172745,-3.13801 0.460623,-4.11683 0.546993,-0.8061 1.381874,-1.18035 2.130392,-1.41069 0.201511,-0.0574 0.08636,-0.28795 -0.08636,-0.31666 -0.54699,-0.0577 -1.237929,-0.0863 -1.784922,-0.0291 -0.575779,0.0577 -1.151562,-0.31667 -1.180351,-0.97882 -0.08636,-0.57579 0.259101,-1.15156 0.863673,-1.23795 1.036407,-0.14397 2.274335,-0.0574 3.28195,0.25911 0.86368,0.20139 1.69856,0.60459 2.18797,0.97884 0.60457,0.46061 0.63336,1.03641 0.63336,1.35307 -0.20151,0.92125 -1.09398,1.15156 -1.92887,1.3531 -2.331912,0.46061 -2.734959,1.3243 -2.591013,2.30312 0,0.83489 0.316681,1.98645 0.575782,3.80016 0.05759,0.25911 0.230306,0.46062 0.460624,0.54697 1.525827,0.43185 3.109217,1.18036 4.577467,2.30315 z m -8.118519,1.46822 c 0.719726,-0.28796 1.093983,-0.77731 1.151563,-1.64097 0,-0.28795 -0.201511,-0.48941 -0.460627,-0.547 -0.633359,-0.14398 -1.986443,-0.34546 -2.907694,0.0292 -0.518203,0.20139 -1.410664,0.92125 -0.08636,1.75615 0.316681,0.2591 1.209141,0.71971 2.303127,0.40302 z" />
      <path
         inkscape:connector-curvature="0"
         id="path4527"
         style="font-style:normal;font-variant:normal;font-weight:normal;font-stretch:normal;font-size:9.87777805px;line-height:1.25;font-family:Mamelon;-inkscape-font-specification:Mamelon;letter-spacing:4.76249981px;word-spacing:0px;fill:#000000;fill-opacity:1;stroke:none;stroke-width:0.77113557"
         d="m 131.92309,360.08211 c -0.92125,2.36071 -1.92887,4.37596 -3.05164,6.01692 -0.43184,0.57577 -1.18035,0.66216 -1.64098,0.34546 -0.43183,-0.34546 -0.69094,-0.95002 -0.2591,-1.5834 2.18797,-3.33953 3.4259,-7.28361 4.23199,-10.36406 0.0576,-0.17284 -0.0863,-0.34546 -0.28789,-0.34546 -1.41067,0.0291 -2.85012,-0.0863 -3.97289,-0.34546 -0.74852,-0.23025 -1.09399,-0.71975 -1.03641,-1.3531 0.0864,-0.57577 0.57578,-1.0652 1.26672,-0.97882 1.52582,0.23025 2.90769,0.40305 4.28957,0.37426 0.2591,0 0.43184,-0.14398 0.46062,-0.37426 0.54699,-2.82135 0.66215,-4.80777 0.66215,-5.12447 0.0289,-0.66215 0.57578,-1.15156 1.23793,-1.15156 0.66215,0.0292 1.20914,0.5758 1.18035,1.20915 0,0.547 -0.20154,2.33192 -0.57578,4.49109 -0.0289,0.17283 0.0864,0.28795 0.23031,0.17283 0.43183,-0.2591 0.92125,-0.60459 1.43945,-1.03641 0.43184,-0.43184 1.26672,-0.43184 1.69856,0.0577 0.37425,0.46064 0.43183,1.29551 -0.11516,1.78495 -0.95004,0.83486 -2.13039,1.49701 -3.54105,1.84247 -0.23031,0.0577 -0.40305,0.23025 -0.46063,0.46065 -0.20154,0.92125 -0.74851,3.25316 -1.75613,5.90174 z m 15.22941,4.03047 c 0.20151,0.60459 -0.14394,1.29551 -0.95004,1.55461 -2.73496,0.97884 -5.03808,0.71974 -6.823,0.31669 -2.07282,-0.48941 -3.74258,-1.41066 -4.46231,-2.01525 -0.5182,-0.46061 -0.57578,-1.12276 -0.23031,-1.64097 0.37426,-0.5182 1.0652,-0.60456 1.66977,-0.17283 0.83488,0.51821 1.72734,1.0652 3.59863,1.52582 1.35309,0.34548 2.96528,0.66215 5.61387,-0.25911 0.74852,-0.2591 1.3243,0.11513 1.5834,0.69095 z m -0.97883,-8.4064 c -0.34546,0.34545 -1.0364,0.57579 -1.69855,-0.0292 -0.83488,-0.7773 -1.95765,-0.92125 -2.90769,-1.03641 -1.41067,-0.11512 -2.56223,0.14398 -3.36833,0.17284 -0.43183,0 -0.89246,-0.28796 -1.06519,-0.77731 -0.14395,-0.60456 0.2591,-1.3243 0.83488,-1.43946 1.43946,-0.28795 2.01524,-0.34545 3.82895,-0.23024 1.29551,0.11512 3.02285,0.5182 4.28957,1.69855 0.57578,0.63336 0.34547,1.26672 0.0864,1.64097 z" />
      <path
         inkscape:connector-curvature="0"
         id="path4529"
         style="font-style:normal;font-variant:normal;font-weight:normal;font-stretch:normal;font-size:9.87777805px;line-height:1.25;font-family:Mamelon;-inkscape-font-specification:Mamelon;letter-spacing:4.76249981px;word-spacing:0px;fill:#000000;fill-opacity:1;stroke:none;stroke-width:0.77113557"
         d="m 175.22595,349.68925 c 4.4911,-2.01522 11.08379,-1.90007 13.38692,4.28957 0.80609,2.47586 0.60457,5.26842 -0.89246,7.39879 -1.78492,2.73497 -5.41235,4.11686 -7.51395,4.26078 -0.57578,0 -1.12277,-0.43181 -1.20914,-0.97881 -0.0864,-0.66215 0.40305,-1.26671 1.00762,-1.3531 0.89246,-0.14398 2.50465,-0.57577 3.77136,-1.35307 4.20321,-2.64861 3.4259,-7.97459 0.89246,-9.93225 -1.0364,-0.80607 -2.18796,-1.23791 -3.59863,-1.29551 -0.17274,0 -0.37425,0.17284 -0.40304,0.37429 -0.14395,0.97881 -0.48942,2.41827 -1.03641,3.88652 -0.66215,1.69853 -1.72734,4.28955 -3.48348,6.7942 -1.09398,1.61221 -2.41828,2.27436 -3.74258,2.01526 -1.58339,-0.40305 -2.64859,-1.75615 -2.99406,-3.68502 -0.63336,-4.11683 1.29551,-8.23366 5.81539,-10.42165 z m 3.08043,1.6122 c 0.0576,-0.17283 -0.0864,-0.31669 -0.2591,-0.28796 -1.35308,0.25911 -3.88652,1.1228 -5.75781,4.43353 -1.12277,1.92886 -0.77731,3.68501 -0.69094,4.20321 0.37426,1.66976 1.3243,2.73494 2.6486,1.06517 1.58339,-2.10157 3.33953,-5.67143 4.05925,-9.41401 z" />
      <path
         inkscape:connector-curvature="0"
         id="path4531"
         style="font-style:normal;font-variant:normal;font-weight:normal;font-stretch:normal;font-size:9.87777805px;line-height:1.25;font-family:Mamelon;-inkscape-font-specification:Mamelon;letter-spacing:4.76249981px;word-spacing:0px;fill:#000000;fill-opacity:1;stroke:none;stroke-width:0.77113557"
         d="m 217.57878,365.52324 c 0.2591,0.23025 0.60457,0.37425 0.95004,0.37425 h 14.79757 c 0.63336,0 1.15156,0.51821 1.15156,1.18036 0,0.63336 -0.5182,1.15156 -1.15156,1.15156 h -14.25058 c -1.35309,0 -2.6486,-0.5182 -3.59863,-1.46822 l -0.77731,-0.77731 c -0.2303,-0.23025 -0.57578,-0.2591 -0.83488,-0.0577 l -2.76375,2.01525 c -0.5182,0.37426 -1.20914,0 -1.20914,-0.60459 0,-0.95002 0.43184,-1.81371 1.18035,-2.38947 l 1.69856,-1.23795 c 0.2591,-0.23025 0.43183,-0.547 0.43183,-0.89246 v -5.78659 c 0,-0.31669 -0.23031,-0.57579 -0.54699,-0.57579 h -1.61219 c -0.63336,0 -1.15156,-0.5182 -1.15156,-1.15156 0,-0.63336 0.5182,-1.15156 1.15156,-1.15156 h 2.41828 c 1.18035,0 2.1016,0.92125 2.1016,2.07281 v 6.73664 c 0,0.34546 0.14395,0.69095 0.40305,0.95005 z m -3.31074,-16.0355 c 0.20151,0.60456 -0.23031,1.23791 -0.89246,1.23791 -0.77731,0 -1.46825,-0.5182 -1.69856,-1.23791 l -0.2879,-0.8061 c -0.20151,-0.60456 0.2591,-1.23792 0.89246,-1.23792 0.74852,0 1.43946,0.48941 1.69856,1.23792 z m 7.19726,13.76118 c -1.18035,0 -2.1016,-0.95005 -2.1016,-2.10161 v -8.20489 c 0,-0.28796 -0.2303,-0.51821 -0.5182,-0.51821 -0.89246,0 -1.49703,-0.95002 -1.09399,-1.75612 l 2.13039,-4.31837 c 0.34547,-0.69091 1.03641,-1.12276 1.81372,-1.12276 0.57578,0 0.95004,0.60456 0.69093,1.12276 l -0.5182,1.06521 c -0.11515,0.23024 0.0576,0.5182 0.31668,0.5182 h 3.48348 c 0.34547,0 0.66214,-0.2014 0.80609,-0.5182 l 0.46062,-1.06521 c 0.31668,-0.66215 1.00762,-1.12276 1.75614,-1.12276 0.57578,0 0.97882,0.60456 0.74851,1.12276 l -0.48941,1.06521 c -0.11515,0.23024 0.0576,0.5182 0.31668,0.5182 h 3.22438 c 0.57577,0 1.09398,0.48941 1.09398,1.094 0,0.60456 -0.51821,1.09396 -1.09398,1.09396 h -3.9729 c -0.31668,0 -0.54699,0.25911 -0.54699,0.5758 v 0.97881 c 0,0.28796 0.23031,0.547 0.54699,0.547 h 2.3895 c 0.66214,0 1.18035,0.51821 1.18035,1.18036 0,0.66215 -0.51821,1.18035 -1.18035,1.18035 h -2.3895 c -0.31668,0 -0.54699,0.2591 -0.54699,0.54697 v 0.92125 c 0,0.3167 0.23031,0.5758 0.54699,0.5758 h 2.3895 c 0.66214,0 1.18035,0.5182 1.18035,1.18035 0,0.63336 -0.51821,1.15156 -1.18035,1.15156 h -2.3895 c -0.31668,0 -0.54699,0.2591 -0.54699,0.57577 v 0.95005 c 0,0.31669 0.23031,0.547 0.54699,0.547 h 3.9729 c 0.57577,0 1.09398,0.5182 1.09398,1.12276 0,0.60459 -0.51821,1.094 -1.09398,1.094 z m 3.59864,-11.02622 c 0.31667,0 0.57578,-0.2591 0.57578,-0.547 v -0.97881 c 0,-0.31669 -0.25911,-0.5758 -0.57578,-0.5758 h -2.93649 c -0.31668,0 -0.57578,0.25911 -0.57578,0.5758 v 0.97881 c 0,0.28796 0.2591,0.547 0.57578,0.547 z m 0,4.40473 c 0.31667,0 0.57578,-0.2591 0.57578,-0.5758 v -0.92125 c 0,-0.28795 -0.25911,-0.54697 -0.57578,-0.54697 h -2.93649 c -0.31668,0 -0.57578,0.2591 -0.57578,0.54697 v 0.92125 c 0,0.3167 0.2591,0.5758 0.57578,0.5758 z m 0,4.40473 c 0.31667,0 0.57578,-0.23025 0.57578,-0.547 v -0.95005 c 0,-0.31667 -0.25911,-0.57577 -0.57578,-0.57577 h -2.93649 c -0.31668,0 -0.57578,0.2591 -0.57578,0.57577 v 0.95005 c 0,0.31669 0.2591,0.547 0.57578,0.547 z" />
      <path
         inkscape:connector-curvature="0"
         id="path4533"
         style="font-style:normal;font-variant:normal;font-weight:normal;font-stretch:normal;font-size:9.87777805px;line-height:1.25;font-family:Mamelon;-inkscape-font-specification:Mamelon;letter-spacing:4.76249981px;word-spacing:0px;fill:#000000;fill-opacity:1;stroke:none;stroke-width:0.77113557"
         d="m 255.75719,343.70115 c 0.69091,0 1.20912,0.5182 1.20912,1.20912 v 2.76376 c 0,0.28795 0.28795,0.57579 0.60459,0.57579 h 0.92125 c 0.69092,0 1.20912,0.5182 1.20912,1.23792 0,0.71971 -0.5182,1.23791 -1.20912,1.23791 h -0.92125 c -0.31669,0 -0.60459,0.28796 -0.60459,0.5758 v 3.22437 c 0,0.28796 0.28795,0.43185 0.5182,0.34546 l 0.547,-0.2591 c 0.57579,-0.2591 1.20915,0.17283 1.20915,0.7773 0,0.8349 -0.48941,1.55461 -1.20915,1.9001 l -0.547,0.2591 c -0.31666,0.14398 -0.5182,0.46061 -0.5182,0.8061 v 9.35643 c 0,0.69094 -0.51821,1.20915 -1.20912,1.20915 -0.69095,0 -1.23795,-0.51821 -1.23795,-1.20915 v -8.20487 c 0,-0.28795 -0.28795,-0.46064 -0.5182,-0.34549 l -0.77731,0.37426 c -0.60456,0.28795 -1.23791,-0.14398 -1.23791,-0.74851 0,-0.86366 0.4894,-1.61217 1.23791,-1.95766 l 0.74854,-0.34546 c 0.34546,-0.14398 0.54697,-0.48941 0.54697,-0.8349 v -4.34713 c 0,-0.31669 -0.2591,-0.5758 -0.54697,-0.5758 h -0.7773 c -0.69095,0 -1.20915,-0.5182 -1.20915,-1.23791 0,-0.71972 0.5182,-1.23792 1.20915,-1.23792 h 0.7773 c 0.28796,0 0.54697,-0.28795 0.54697,-0.57579 v -2.76376 c 0,-0.69092 0.547,-1.20912 1.23795,-1.20912 z m 21.07358,8.98216 c 0,0.66216 -0.5182,1.18036 -1.15156,1.18036 h -5.15323 c -0.3167,0 -0.547,0.2591 -0.547,0.547 v 5.70023 c 0,0.66215 -0.547,1.18036 -1.20915,1.18036 -0.66215,0 -1.18036,-0.51821 -1.18036,-1.18036 v -5.70023 c 0,-0.28796 -0.2591,-0.547 -0.57576,-0.547 h -5.15324 c -0.66215,0 -1.18035,-0.5182 -1.18035,-1.18036 0,-0.66215 0.5182,-1.18035 1.18035,-1.18035 h 0.66215 c 0.28796,0 0.51821,-0.20139 0.51821,-0.48941 v -3.25317 c 0,-0.63335 0.5182,-1.15155 1.15156,-1.15155 0.63335,0 1.15155,0.5182 1.15155,1.15155 v 3.19561 c 0,0.31666 0.25911,0.54697 0.57577,0.54697 h 1.12279 c 0.31667,0 0.57577,-0.23025 0.57577,-0.54697 v -5.75783 c 0,-0.63335 0.5182,-1.15155 1.15156,-1.15155 0.63335,0 1.18035,0.5182 1.18035,1.15155 v 0.37426 c 0,0.23025 0.17283,0.40305 0.40305,0.40305 h 2.93648 c 0.63338,0 1.15159,0.547 1.15159,1.18035 0,0.66216 -0.51821,1.18036 -1.15159,1.18036 h -2.79253 c -0.31669,0 -0.547,0.2591 -0.547,0.547 v 2.07281 c 0,0.31666 0.23025,0.54697 0.547,0.54697 h 5.18203 c 0.63336,0 1.15156,0.5182 1.15156,1.18035 z m -12.43687,3.51227 c 0.63335,0 1.0364,0.63336 0.74851,1.18036 l -0.80608,1.69856 c -0.34548,0.74851 -1.09399,1.20915 -1.92889,1.20915 -0.63336,0 -1.03641,-0.63336 -0.74851,-1.20915 l 0.8061,-1.69856 c 0.37426,-0.71972 1.12277,-1.18036 1.92887,-1.18036 z m 5.75782,4.95173 c 0.40305,-0.74851 1.18036,-1.20915 2.04402,-1.20915 0.63335,0 1.00761,0.69095 0.69095,1.20915 l -0.66216,1.23792 c -0.69094,1.20915 -1.66976,2.15919 -2.9077,2.79255 l -6.24724,3.22437 c -0.54697,0.28796 -1.20912,-0.11512 -1.20912,-0.71971 0,-0.8349 0.48941,-1.6122 1.20912,-1.98646 l 5.87298,-3.02286 c 0.31669,-0.14398 0.5758,-0.40305 0.77731,-0.71971 z m 3.13799,-4.95173 c 0.89248,0 1.69856,0.43185 2.1592,1.18036 l 1.55461,2.44707 c 0.31666,0.5182 -0.0577,1.18035 -0.66216,1.18035 -0.89245,0 -1.69855,-0.43185 -2.15917,-1.18035 l -1.55461,-2.44707 c -0.31669,-0.5182 0.0577,-1.18036 0.66213,-1.18036 z" />
      <path
         inkscape:connector-curvature="0"
         id="path4535"
         style="font-style:normal;font-variant:normal;font-weight:normal;font-stretch:normal;font-size:9.87777805px;line-height:1.25;font-family:Mamelon;-inkscape-font-specification:Mamelon;letter-spacing:4.76249981px;word-spacing:0px;fill:#000000;fill-opacity:1;stroke:none;stroke-width:0.77113557"
         d="m 302.02532,366.90513 c 0.48941,0.51821 0.11513,1.41067 -0.63335,1.41067 h -0.40305 c -1.23792,0 -2.41827,-0.51821 -3.22437,-1.41067 l -2.13041,-2.27435 c -0.4894,-0.5182 -0.11512,-1.38186 0.63339,-1.38186 h 0.43181 c 1.23795,0 2.38951,0.5182 3.22438,1.38186 z" />
      <path
         inkscape:connector-curvature="0"
         id="path4537"
         style="font-style:normal;font-variant:normal;font-weight:normal;font-stretch:normal;font-size:9.87777805px;line-height:1.25;font-family:Mamelon;-inkscape-font-specification:Mamelon;letter-spacing:4.76249981px;word-spacing:0px;fill:#000000;fill-opacity:1;stroke:none;stroke-width:0.77113557"
         d="m 344.49333,346.69521 c 0.63335,0 1.0364,0.66212 0.71971,1.23792 l -3.25317,6.10328 c -0.40302,0.71972 -1.18032,1.20915 -2.04402,1.20915 -0.60456,0 -1.00761,-0.66215 -0.71971,-1.20915 l 3.22437,-6.10328 c 0.43185,-0.74851 1.20915,-1.23792 2.07282,-1.23792 z m 10.36406,13.9339 c -0.20169,-0.60456 0.23025,-1.18036 0.83487,-1.18036 0.7773,0 1.43945,0.5182 1.69855,1.18036 l 2.07282,6.04569 c 0.20168,0.60459 -0.23025,1.18035 -0.83487,1.18035 -0.8061,0 -1.43946,-0.5182 -1.75615,-1.18035 l -0.0292,-0.14398 c -0.0863,-0.2591 -0.34548,-0.40305 -0.57579,-0.37428 l -13.07023,1.20915 c -0.97885,0.0863 -1.64097,-0.8061 -1.29551,-1.69856 l 3.80017,-9.4716 c 0.28795,-0.71972 0.97881,-1.20913 1.78491,-1.20913 0.57577,0 1.03641,0.60456 0.77731,1.20913 l -3.19561,8.06094 c -0.11512,0.23025 0.14398,0.547 0.40305,0.5182 l 9.8171,-0.95005 c 0.31666,0 0.5182,-0.37425 0.43181,-0.66215 z m 6.33359,-6.67905 c 0.31669,0.5182 -0.0577,1.18032 -0.69095,1.18032 -0.89246,0 -1.72732,-0.48941 -2.18796,-1.23792 l -3.77137,-6.13208 c -0.34546,-0.4894 0.0577,-1.18035 0.66215,-1.18035 0.92125,0 1.72735,0.48944 2.21676,1.23795 z" />
      <path
         inkscape:connector-curvature="0"
         id="path4539"
         style="font-style:normal;font-variant:normal;font-weight:normal;font-stretch:normal;font-size:9.87777805px;line-height:1.25;font-family:Mamelon;-inkscape-font-specification:Mamelon;letter-spacing:4.76249981px;word-spacing:0px;fill:#000000;fill-opacity:1;stroke:none;stroke-width:0.77113557"
         d="m 388.68862,344.01781 c 1.15159,0 2.10161,0.92125 2.10161,2.07281 v 5.78662 c 0,1.15156 -0.95002,2.07282 -2.10161,2.07282 h -5.52749 c -0.31666,0 -0.57576,0.2591 -0.57576,0.57576 v 12.95508 c 0,0.60459 -0.48944,1.094 -1.094,1.094 -0.63336,0 -1.12276,-0.48941 -1.12276,-1.094 v -21.39028 c 0,-1.15156 0.95001,-2.07281 2.10157,-2.07281 z m -0.14398,2.79255 c 0,-0.31669 -0.23024,-0.57579 -0.54699,-0.57579 h -4.83652 c -0.31666,0 -0.57576,0.2591 -0.57576,0.57579 v 0.51821 c 0,0.28795 0.2591,0.54697 0.57576,0.54697 h 4.83657 c 0.31667,0 0.547,-0.2591 0.547,-0.54697 z m -5.95933,4.37594 c 0,0.28795 0.2591,0.54699 0.57576,0.54699 h 4.83658 c 0.31666,0 0.54699,-0.2591 0.54699,-0.54699 v -0.48941 c 0,-0.31669 -0.23024,-0.5758 -0.54699,-0.5758 h -4.83652 c -0.31666,0 -0.57576,0.25911 -0.57576,0.5758 z m 14.36574,6.93815 c -0.3167,0 -0.547,0.2591 -0.547,0.547 v 1.3531 c 0,0.31666 0.2591,0.54696 0.547,0.54696 h 1.78491 c 0.57577,0 1.0652,0.48944 1.0652,1.06521 0,0.60459 -0.48943,1.0652 -1.0652,1.0652 h -1.78491 c -0.28796,0 -0.547,0.2591 -0.547,0.57579 v 3.80014 c 0,0.57579 -0.48941,1.0652 -1.0652,1.0652 -0.60456,0 -1.0652,-0.48941 -1.0652,-1.0652 v -3.80014 c 0,-0.31669 -0.25911,-0.57579 -0.57577,-0.57579 h -2.79256 c -0.31666,0 -0.60456,0.23025 -0.66215,0.57579 l -0.60456,3.77137 c -0.0863,0.63336 -0.63335,1.09397 -1.26671,1.09397 -0.57579,0 -1.00761,-0.5182 -0.92125,-1.09397 l 0.60456,-3.77137 c 0.0577,-0.31669 -0.17283,-0.57579 -0.46061,-0.57579 h -1.18036 c -0.57579,0 -1.0652,-0.46061 -1.0652,-1.0652 0,-0.57577 0.48941,-1.06521 1.0652,-1.06521 h 1.55461 c 0.31669,0 0.60456,-0.23024 0.63336,-0.54696 l 0.20139,-1.3531 c 0.0577,-0.28796 -0.17283,-0.547 -0.46064,-0.547 h -1.00761 c -0.5758,0 -1.0652,-0.46061 -1.0652,-1.06518 0,-0.57579 0.4894,-1.0652 1.0652,-1.0652 h 10.5368 c 0.60457,0 1.06518,0.48941 1.06518,1.0652 0,0.60457 -0.46061,1.06518 -1.06518,1.06518 z m -6.13208,1.9001 c -0.0577,0.28795 0.17283,0.54696 0.46061,0.54696 h 2.4183 c 0.31666,0 0.57577,-0.23024 0.57577,-0.54696 v -1.32431 c 0,-0.31669 -0.25911,-0.57579 -0.57577,-0.57579 h -2.04402 c -0.31669,0 -0.60459,0.2591 -0.63338,0.57579 z m 3.45468,-13.93393 c 0,-1.15156 0.92125,-2.07281 2.1016,-2.07281 h 6.33359 c 1.18036,0 2.10161,0.92125 2.10161,2.07281 v 21.39028 c 0,0.60459 -0.48941,1.094 -1.094,1.094 -0.63335,0 -1.12276,-0.48941 -1.12276,-1.094 v -12.95508 c 0,-0.31666 -0.2591,-0.57576 -0.57576,-0.57576 h -5.64268 c -1.18035,0 -2.1016,-0.92126 -2.1016,-2.07282 z m 8.32004,0.71974 c 0,-0.31669 -0.2591,-0.57579 -0.57576,-0.57579 h -4.95173 c -0.31669,0 -0.57579,0.2591 -0.57579,0.57579 v 0.51821 c 0,0.28795 0.2591,0.54697 0.57579,0.54697 h 4.95173 c 0.31666,0 0.57576,-0.2591 0.57576,-0.54697 z m -6.10328,4.37594 c 0,0.28795 0.2591,0.54699 0.57579,0.54699 h 4.95173 c 0.31666,0 0.57576,-0.2591 0.57576,-0.54699 v -0.48941 c 0,-0.31669 -0.2591,-0.5758 -0.57576,-0.5758 h -4.95173 c -0.31669,0 -0.57579,0.25911 -0.57579,0.5758 z" />
      <path
         inkscape:connector-curvature="0"
         id="path4541"
         style="font-style:normal;font-variant:normal;font-weight:normal;font-stretch:normal;font-size:9.87777805px;line-height:1.25;font-family:Mamelon;-inkscape-font-specification:Mamelon;letter-spacing:4.76249981px;word-spacing:0px;fill:#000000;fill-opacity:1;stroke:none;stroke-width:0.77113557"
         d="m 431.09903,358.98814 c 0.11513,3.36832 0.89246,4.69259 1.46825,5.18203 1.15156,0.95002 2.70617,1.09397 4.72139,0.40305 1.84251,-0.66215 3.94412,-2.01525 5.93054,-3.85776 0.5758,-0.54697 1.23795,-0.40305 1.641,0.0577 0.37426,0.46061 0.46061,1.12276 -0.11512,1.61217 -2.13041,2.07284 -4.51991,3.65622 -6.65029,4.34717 -1.15156,0.37425 -2.18796,0.547 -3.10922,0.547 -1.52581,0 -2.67737,-0.3167 -3.82896,-1.32431 -1.43942,-1.20915 -2.24552,-3.48347 -2.36068,-6.88059 -0.0291,-2.61981 0.2591,-5.32598 0.48941,-7.02454 0,0 0.0574,-0.86366 0.11512,-1.78491 0.0292,-0.92125 0,-1.49702 -0.57579,-1.84251 -0.57577,-0.31666 -0.69092,-1.0364 -0.40302,-1.52581 0.37425,-0.547 1.0364,-0.74851 1.58337,-0.40305 0.43185,0.2591 1.06521,0.7773 1.46826,1.6122 0.23024,0.71971 0.2591,1.61217 0.20139,2.76373 -0.17283,2.85012 -0.66212,4.69262 -0.57577,8.11854 z" />
      <path
         inkscape:connector-curvature="0"
         id="path4543"
         style="font-style:normal;font-variant:normal;font-weight:normal;font-stretch:normal;font-size:9.87777805px;line-height:1.25;font-family:Mamelon;-inkscape-font-specification:Mamelon;letter-spacing:4.76249981px;word-spacing:0px;fill:#000000;fill-opacity:1;stroke:none;stroke-width:0.77113557"
         d="m 474.80492,367.42334 c -0.66215,0 -1.15156,-0.46064 -1.09397,-1.094 0.0574,-0.69095 0.57577,-1.03641 1.12277,-1.03641 2.1016,0 7.05333,-1.18035 8.89581,-4.20321 1.81371,-2.87889 -0.60456,-4.34714 -2.61979,-4.34714 -2.33191,0.0577 -5.67146,1.0652 -7.22607,4.11683 -0.2591,0.5182 -0.95002,0.69095 -1.49702,0.40305 -0.46061,-0.31666 -0.69095,-0.89246 -0.46061,-1.35307 0.86366,-1.81371 1.43942,-4.69262 1.84247,-7.25484 0.0292,-0.20169 -0.11512,-0.37429 -0.31666,-0.34549 -1.29551,0.11512 -2.53345,0.20139 -3.28196,0.17283 -0.63336,0 -1.03641,-0.46064 -1.00761,-1.0364 0,-0.5758 0.5182,-1.06521 1.12276,-1.03641 0.71974,0.0577 1.92886,-0.0577 3.39712,-0.23025 0.23024,-0.0291 0.37425,-0.20168 0.37425,-0.40305 0.0863,-0.89246 0.2591,-2.99406 0.34546,-3.65622 0.11512,-0.63335 0.74854,-1.0364 1.3531,-0.92125 0.547,0.0863 0.92125,0.71974 0.89246,1.23795 -0.0574,0.66212 -0.2591,2.21673 -0.34546,2.96527 -0.0292,0.17283 0.14398,0.34546 0.34546,0.31666 1.92886,-0.31666 3.77137,-0.7773 5.46993,-1.43946 0.63335,-0.23024 1.09396,-0.17283 1.46825,0.48944 0.2591,0.66212 -0.17283,1.18033 -0.71975,1.38187 -2.99406,1.18035 -5.55628,1.5834 -6.50633,1.72735 -0.23025,0.0291 -0.40305,0.20139 -0.43182,0.40302 -0.14397,1.20915 -0.31669,2.50466 -0.57579,3.68501 -0.0574,0.0863 0.0577,0.17283 0.17283,0.0863 0.74851,-0.4894 2.76373,-1.52581 5.61385,-1.43945 3.80016,0.0863 5.75782,2.6486 5.29721,5.41236 -1.00764,4.95173 -7.54274,7.3988 -11.6308,7.3988 z" />
      <path
         inkscape:connector-curvature="0"
         id="path4545"
         style="font-style:normal;font-variant:normal;font-weight:normal;font-stretch:normal;font-size:9.87777805px;line-height:1.25;font-family:Mamelon;-inkscape-font-specification:Mamelon;letter-spacing:4.76249981px;word-spacing:0px;fill:#000000;fill-opacity:1;stroke:none;stroke-width:0.77113557"
         d="m 528.52947,359.73665 c -1.18035,1.72735 -3.19558,1.98645 -4.57747,1.98645 -2.04402,0 -3.82893,-0.547 -3.91532,-0.63338 -0.48941,-0.17283 -0.7773,-0.71972 -0.66212,-1.20912 0.20139,-0.43185 0.69092,-0.77731 1.26671,-0.63336 2.53343,0.60456 4.11683,0.74851 5.21083,0.23025 1.09397,-0.51821 1.46822,-1.29551 1.43942,-2.15917 -0.0574,-0.69095 -0.4894,-1.20915 -1.35306,-1.41069 -0.74851,-0.14398 -1.55461,-0.11513 -2.27436,0.0863 -0.0863,0.0291 -0.11512,0.0577 -0.0577,0.14398 0.0863,0.17283 0.20139,0.54697 0.23024,0.7485 0.11513,0.51821 -0.2591,1.12277 -0.95005,1.15156 -0.37425,0 -0.86366,-0.28795 -0.97881,-0.71971 -0.0291,-0.14398 -0.0863,-0.28795 -0.17283,-0.46064 -0.0577,-0.11512 -0.11513,-0.14398 -0.23025,-0.0863 -0.83487,0.43182 -2.27432,1.29551 -2.99407,1.72732 -0.11512,0.0292 -0.14397,0.11513 -0.0574,0.20169 1.23791,2.96527 2.59101,6.33359 3.02283,7.37 0.23025,0.69094 -0.2591,1.15156 -0.60456,1.2955 -0.31669,0.11513 -0.97882,0.14398 -1.3531,-0.54699 -0.37425,-1.20913 -1.72732,-4.37594 -2.85012,-7.19726 -0.0291,-0.0863 -0.0574,-0.0863 -0.11512,-0.0291 -0.23025,0.0577 -0.48941,0.17283 -0.69092,0.31669 -1.3243,0.48941 -2.33191,0.7773 -3.13801,0.7773 -0.547,0.0292 -1.03641,-0.43184 -1.06521,-0.92125 0,-0.547 0.51821,-1.03641 1.03641,-1.03641 0.66215,-0.0291 1.84251,-0.43184 3.08042,-1.00764 0.11513,-0.0574 0.14398,-0.0863 0.0863,-0.17283 -0.69094,-1.5834 -1.18035,-2.79255 -1.2955,-3.02286 -0.23025,-0.48941 -0.0291,-1.15156 0.43181,-1.38186 0.48944,-0.2014 1.094,-0.0292 1.32431,0.43181 0.17283,0.28796 0.66215,1.46826 1.26671,3.02286 0.0291,0.0863 0.0291,0.11513 0.0863,0.0577 0.54697,-0.34549 1.75612,-1.0364 2.87888,-1.64099 0.0863,-0.0292 0.11513,-0.0863 0.0577,-0.14398 -0.40305,-0.5182 -0.66215,-0.80607 -0.74851,-0.86366 -0.43184,-0.34546 -0.5182,-1.00761 -0.17283,-1.38187 0.28795,-0.43184 0.97884,-0.48941 1.38186,-0.20168 0.60459,0.48943 1.03641,1.12279 1.3819,1.64099 0.0574,0.0863 0.11512,0.11513 0.2591,0.0863 0.8061,-0.31669 3.25317,-0.89246 5.23959,0.5182 1.52585,1.12277 1.69856,3.31073 0.5758,5.06688 z" />
      <path
         inkscape:connector-curvature="0"
         id="path4547"
         style="font-style:normal;font-variant:normal;font-weight:normal;font-stretch:normal;font-size:9.87777805px;line-height:1.25;font-family:Mamelon;-inkscape-font-specification:Mamelon;letter-spacing:4.76249981px;word-spacing:0px;fill:#000000;fill-opacity:1;stroke:none;stroke-width:0.77113557"
         d="m 561.26674,350.78325 c 0,0.0577 0,0.20139 0,0.31669 0,0.17283 0.11512,0.28795 0.28795,0.20139 0.43182,-0.14398 0.97882,-0.40305 1.49702,-0.86366 0.57579,-0.63336 1.29551,-1.094 1.9001,-0.8061 1.00761,0.5182 0.5182,1.49702 0.0863,2.04402 -0.66215,0.69094 -1.41066,1.09399 -3.42591,1.78491 -0.23025,0.0863 -0.34546,0.3167 -0.34546,0.51821 0,0.66215 0,1.41066 0,2.1016 0,0.17284 0.11512,0.28796 0.28795,0.23025 1.41066,-0.48941 3.05163,-0.80607 4.54868,-0.7773 4.83654,0.17283 7.22605,2.90771 7.16845,5.61387 -0.0291,2.70617 -1.98642,4.57747 -5.21079,4.75019 -3.19561,0.14398 -5.06688,-1.49702 -5.38357,-2.67737 -0.51821,-2.10161 0.92125,-3.33953 1.92886,-3.02286 0.8061,0.34548 0.7773,1.15155 0.547,1.90009 -0.0863,0.23025 -0.14398,0.51821 0.0291,0.69092 0.25911,0.34549 0.92126,0.74854 2.33192,0.89246 2.50463,0.20168 3.31073,-1.03641 3.36832,-2.30312 0.0577,-1.69856 -1.12279,-3.39712 -4.03047,-3.65622 -2.04402,-0.17283 -3.77137,0.14398 -5.23963,0.69095 -0.2591,0.0863 -0.34546,0.28796 -0.34546,0.5182 0,1.98646 -0.0291,3.82896 -0.0863,4.60627 -0.20139,2.27432 -1.26674,2.76373 -2.59101,2.76373 -1.43946,-0.0292 -2.73497,-0.74851 -4.00168,-1.43946 -1.29553,-0.7773 -1.38189,-2.61978 -0.23025,-4.00167 0.8637,-1.00761 2.44707,-2.27433 4.26078,-3.25317 0.23025,-0.11512 0.37429,-0.37426 0.37429,-0.57577 0,-0.83489 0,-1.66976 0,-2.44706 0,-0.17283 -0.17283,-0.3167 -0.37429,-0.2591 -1.87127,0.34545 -3.45468,0.2591 -4.20318,0.20139 -1.00762,-0.14398 -1.72736,-0.83487 -1.3531,-1.66976 0.31669,-0.66215 1.15156,-0.43185 1.72735,-0.37426 0.547,0.0574 2.01522,0.17283 3.82893,-0.23025 0.23025,-0.0291 0.37429,-0.23024 0.37429,-0.48943 -0.0291,-1.78492 -0.3167,-2.33192 -0.92126,-3.56983 -0.60459,-1.29551 -0.40305,-2.13041 0.14398,-2.47587 0.48941,-0.2591 1.23792,-0.28795 1.75612,0.74851 0.74851,1.46826 1.20915,2.4183 1.29551,4.31837 z m -2.30312,11.63077 c 0,-0.23025 0,-1.18035 0.0291,-2.30312 0,-0.17283 -0.17283,-0.20139 -0.28795,-0.14398 -1.32431,0.86367 -2.30312,1.72736 -2.59102,2.10161 -0.34549,0.46061 -0.2591,0.83487 -0.0577,1.09397 0.17284,0.17283 0.43185,0.28796 0.71975,0.43185 0.4894,0.23024 1.18035,0.5182 1.72732,0.28795 0.40305,-0.14398 0.43185,-0.69095 0.46064,-1.46825 z m 14.65363,-8.4064 c -0.0863,0.28795 -0.48943,0.83489 -1.26674,0.60456 -0.60456,-0.23025 -1.0364,-0.83487 -1.58337,-1.20912 -1.00764,-0.74851 -1.92887,-0.8349 -2.67741,-1.03641 -0.86366,-0.23025 -1.41066,-0.83489 -1.12276,-1.5834 0.28796,-0.51821 0.71971,-0.66216 1.6122,-0.51821 2.24553,0.34546 3.71378,1.15156 4.60624,2.15917 0.57579,0.74854 0.5182,1.26674 0.43184,1.58341 z" />
      <path
         inkscape:connector-curvature="0"
         id="path4549"
         style="font-style:normal;font-variant:normal;font-weight:normal;font-stretch:normal;font-size:9.87777805px;line-height:1.25;font-family:Mamelon;-inkscape-font-specification:Mamelon;letter-spacing:4.76249981px;word-spacing:0px;fill:#000000;fill-opacity:1;stroke:none;stroke-width:0.77113557"
         d="m 601.54674,356.33953 c -0.43184,0.48941 -1.3243,0.43185 -1.72735,0 -0.5182,-0.46061 -0.5182,-1.26671 -0.0863,-1.69856 1.00761,-1.09396 2.50463,-2.07281 4.11683,-2.73496 1.81371,-0.66215 3.68501,-0.92125 5.12444,-0.60456 0.69095,0.17283 1.3243,0.5182 1.8713,1.03641 1.52581,1.46825 1.95766,3.74257 1.66976,5.78659 -0.20139,1.43945 -0.71971,2.9365 -1.5834,4.34716 -1.87127,2.90768 -5.90175,5.03809 -7.917,5.52749 -0.5182,0.0863 -1.26671,-0.0863 -1.46822,-0.86366 -0.11512,-0.60456 0.28795,-1.26671 0.89246,-1.43946 0,0 0.97881,-0.31669 2.30312,-0.97881 1.26671,-0.66215 2.6486,-1.43946 4.11683,-3.4835 2.30314,-3.62743 1.41066,-7.05331 -0.40305,-7.60031 -3.39709,-0.69094 -5.84416,1.52582 -6.90936,2.70617 z m 7.80184,-7.42759 c -0.23024,0 -0.46064,-0.0577 -0.69094,-0.23024 -0.97885,-0.69092 -3.65622,-1.58341 -5.58508,-1.32431 -0.60456,0.0863 -1.18036,-0.43181 -1.29551,-1.0364 -0.0577,-0.57577 0.40305,-1.20912 1.00761,-1.29551 2.3895,-0.28796 5.72903,0.71974 7.22605,1.75615 0.5182,0.37425 0.63338,1.15156 0.2591,1.64096 -0.23025,0.3167 -0.63336,0.48941 -0.92123,0.48941 z" />
    </g>
  </g>
</svg>
